HIERARCHY
ROOT Hips
{
	OFFSET 0.00000 0.00000 0.00000
	CHANNELS 6 Xposition Yposition Zposition Zrotation Yrotation Xrotation 
	JOINT LHipJoint
	{
		OFFSET 0 0 0
		CHANNELS 3 Zrotation Yrotation Xrotation
		JOINT LeftUpLeg
		{
			OFFSET 1.77779 -1.88989 0.48267
			CHANNELS 3 Zrotation Yrotation Xrotation
			JOINT LeftLeg
			{
				OFFSET 2.53442 -6.96327 0.00000
				CHANNELS 3 Zrotation Yrotation Xrotation
				JOINT LeftFoot
				{
					OFFSET 2.71068 -7.44755 0.00000
					CHANNELS 3 Zrotation Yrotation Xrotation
					JOINT LeftToeBase
					{
						OFFSET 0.17992 -0.49431 2.22524
						CHANNELS 3 Zrotation Yrotation Xrotation
						End Site
						{
							OFFSET 0.00000 -0.00000 1.14687
						}
					}
				}
			}
		}
	}
	JOINT RHipJoint
	{
		OFFSET 0 0 0
		CHANNELS 3 Zrotation Yrotation Xrotation
		JOINT RightUpLeg
		{
			OFFSET -1.58469 -1.88989 0.48267
			CHANNELS 3 Zrotation Yrotation Xrotation
			JOINT RightLeg
			{
				OFFSET -2.60386 -7.15404 0.00000
				CHANNELS 3 Zrotation Yrotation Xrotation
				JOINT RightFoot
				{
					OFFSET -2.73334 -7.50979 0.00000
					CHANNELS 3 Zrotation Yrotation Xrotation
					JOINT RightToeBase
					{
						OFFSET -0.25618 -0.70384 2.21822
						CHANNELS 3 Zrotation Yrotation Xrotation
						End Site
						{
							OFFSET -0.00000 -0.00000 1.16381
						}
					}
				}
			}
		}
	}
	JOINT LowerBack
	{
		OFFSET 0 0 0
		CHANNELS 3 Zrotation Yrotation Xrotation
		JOINT Spine
		{
			OFFSET 0.03410 2.01612 -0.22230
			CHANNELS 3 Zrotation Yrotation Xrotation
			JOINT Spine1
			{
				OFFSET 0.03465 2.03012 0.00937
				CHANNELS 3 Zrotation Yrotation Xrotation
				JOINT Neck
				{
					OFFSET 0 0 0
					CHANNELS 3 Zrotation Yrotation Xrotation
					JOINT Neck1
					{
						OFFSET -0.00219 1.70459 0.20857
						CHANNELS 3 Zrotation Yrotation Xrotation
						JOINT Head
						{
							OFFSET 0.02518 1.72339 -0.22179
							CHANNELS 3 Zrotation Yrotation Xrotation
							End Site
							{
								OFFSET 0.00282 1.74122 -0.09823
							}
						}
					}
				}
				JOINT LeftShoulder
				{
					OFFSET 0 0 0
					CHANNELS 3 Zrotation Yrotation Xrotation
					JOINT LeftArm
					{
						OFFSET 3.36358 1.00547 -0.37661
						CHANNELS 3 Zrotation Yrotation Xrotation
						JOINT LeftForeArm
						{
							OFFSET 5.06507 -0.00000 0.00000
							CHANNELS 3 Zrotation Yrotation Xrotation
							JOINT LeftHand
							{
								OFFSET 3.60196 -0.00000 0.00000
								CHANNELS 3 Zrotation Yrotation Xrotation
								JOINT LeftFingerBase
								{
									OFFSET 0 0 0
									CHANNELS 3 Zrotation Yrotation Xrotation
									JOINT LeftHandIndex1
									{
										OFFSET 0.45035 -0.00000 0.00000
										CHANNELS 3 Zrotation Yrotation Xrotation
										End Site
										{
											OFFSET 0.36308 -0.00000 0.00000
										}
									}
								}
								JOINT LThumb
								{
									OFFSET 0 0 0
									CHANNELS 3 Zrotation Yrotation Xrotation
									End Site
									{
										OFFSET 0.36862 -0.00000 0.36862
									}
								}
							}
						}
					}
				}
				JOINT RightShoulder
				{
					OFFSET 0 0 0
					CHANNELS 3 Zrotation Yrotation Xrotation
					JOINT RightArm
					{
						OFFSET -3.50159 0.80383 -0.71526
						CHANNELS 3 Zrotation Yrotation Xrotation
						JOINT RightForeArm
						{
							OFFSET -5.36394 -0.00000 0.00000
							CHANNELS 3 Zrotation Yrotation Xrotation
							JOINT RightHand
							{
								OFFSET -3.58035 -0.00000 0.00000
								CHANNELS 3 Zrotation Yrotation Xrotation
								JOINT RightFingerBase
								{
									OFFSET 0 0 0
									CHANNELS 3 Zrotation Yrotation Xrotation
									JOINT RightHandIndex1
									{
										OFFSET -0.66375 -0.00000 0.00000
										CHANNELS 3 Zrotation Yrotation Xrotation
										End Site
										{
											OFFSET -0.53513 -0.00000 0.00000
										}
									}
								}
								JOINT RThumb
								{
									OFFSET 0 0 0
									CHANNELS 3 Zrotation Yrotation Xrotation
									End Site
									{
										OFFSET -0.54330 -0.00000 0.54330
									}
								}
							}
						}
					}
				}
			}
		}
	}
}
MOTION
Frames: 6
Frame Time: .0083333
0.5973 17.8937 6.6538 -0.8871 2.6306 -2.8649 0.0000 0.0000 0.0000 -20.7731 0.7162 8.2744 4.7089 13.0483 39.5495 -0.4740 -12.1085 5.1403 0.9726 -6.2783 -17.5942 0.0000 0.0000 0.0000 22.7249 12.0242 -21.8671 -2.4481 -9.7430 28.1484 0.0309 -4.2933 -4.7038 -0.1846 -2.7674 7.6319 -1.5279 -1.0244 11.8073 2.4148 -1.4127 0.4146 3.6468 -0.6147 -6.0947 -1.4398 -2.1542 -17.5930 -1.8240 -2.1229 24.8069 -0.7238 -1.3345 10.9186 -0.0000 -0.0000 0.0000 -83.0279 0.5404 24.9276 16.8519 -26.6622 -4.0207 -0.0000 0.0000 -9.1617 29.4892 19.1162 10.4923 -7.1250 0.0000 -0.0000 1.2697 51.6870 0.2091 -0.0000 -0.0000 0.0000 89.1315 -2.4278 -16.6381 -9.4002 15.7959 -1.3069 0.0000 0.0000 15.2269 -17.4090 19.0464 -5.8424 7.1250 -0.0000 -0.0000 7.0152 -10.2067 5.7052
0.5765 17.9071 6.8438 -1.0618 2.4085 -3.0482 0.0000 0.0000 0.0000 -20.2866 0.7033 7.1602 5.2063 13.6124 41.7064 -0.5336 -13.1543 8.0599 1.3617 -7.3860 -20.8640 0.0000 0.0000 0.0000 23.2846 11.8600 -21.2714 -2.5288 -9.8901 28.6215 0.0339 -4.2134 -4.3713 -0.0674 -1.6754 4.6095 -1.4351 -0.9289 11.9667 2.4904 -1.2692 0.4614 3.6542 -0.5453 -6.1453 -1.4180 -2.1483 -17.6554 -1.8827 -2.1041 24.6991 -0.7453 -1.3308 10.8897 -0.0000 0.0000 0.0000 -83.3402 0.9586 24.2178 16.9349 -26.7719 -4.0580 -0.0000 0.0000 -8.4137 28.2875 21.9952 11.3957 -7.1250 0.0000 -0.0000 -0.5889 54.6201 -0.1392 -0.0000 0.0000 0.0000 89.0050 -2.2509 -17.3632 -9.2221 15.5137 -1.2589 0.0000 0.0000 15.8984 -17.2614 19.3072 -5.8658 7.1250 -0.0000 -0.0000 7.1234 -9.9570 5.8309
0.5609 17.9240 7.0388 -1.1362 2.3754 -3.2488 0.0000 0.0000 0.0000 -19.9363 0.5509 6.1369 5.7170 14.1484 43.8353 -0.5419 -14.0780 11.2267 1.0493 -6.5138 -18.2826 0.0000 0.0000 0.0000 23.6768 11.5126 -20.5562 -2.5769 -9.9764 28.9005 0.0312 -4.2685 -4.6444 -0.0702 -1.7090 4.7021 -1.3123 -0.8853 12.2252 2.5020 -1.1921 0.3313 3.5949 -0.5043 -6.4364 -1.4478 -2.1226 -17.2947 -1.9507 -2.0487 24.6613 -0.7512 -1.3161 10.8057 -0.0000 0.0000 0.0000 -83.5795 1.7835 23.8013 17.0614 -26.9386 -4.1151 -0.0000 0.0000 -7.8294 27.5808 23.1391 11.6000 -7.1250 0.0000 -0.0000 -1.6570 55.7125 -0.4357 -0.0000 0.0000 0.0000 88.9704 -2.3709 -18.1527 -9.1214 15.3537 -1.2321 0.0000 0.0000 16.4586 -16.9735 19.3098 -5.7634 7.1250 -0.0000 -0.0000 7.3101 -9.9891 5.9815
0.5427 17.9496 7.2420 -1.3768 2.3946 -3.4111 0.0000 0.0000 0.0000 -19.4432 0.1586 5.0447 6.2519 14.6681 45.9846 -0.3440 -14.0553 15.3306 0.1197 -2.2305 -6.1431 0.0000 0.0000 0.0000 24.2207 11.1167 -19.7543 -2.5931 -10.0053 28.9939 0.0111 -3.9309 -5.1094 -0.1798 -2.7315 7.5321 -0.9703 -0.8374 12.4053 2.4708 -1.0793 0.1540 3.3573 -0.4535 -6.7410 -1.3456 -2.1805 -16.9780 -1.9865 -2.1569 24.8174 -0.7942 -1.3604 10.7992 0.0000 -0.0000 0.0000 -83.5192 2.3272 23.9023 16.9147 -26.7451 -4.0489 -0.0000 0.0000 -7.6542 27.7365 24.5508 12.3243 -7.1250 0.0000 -0.0000 -1.9200 57.2677 -0.5771 0.0000 -0.0000 0.0000 89.0650 -2.7912 -17.9102 -9.1605 15.4159 -1.2424 0.0000 0.0000 16.0411 -16.6956 19.4412 -5.7008 7.1250 -0.0000 -0.0000 7.4961 -9.8881 6.1518
0.5240 17.9710 7.4286 -2.0402 2.0669 -3.4977 0.0000 0.0000 0.0000 -18.5326 -0.1857 3.7046 6.8359 15.1921 48.2508 -0.0510 -14.0860 19.4252 0.0018 0.2721 0.7477 0.0000 0.0000 0.0000 25.2720 11.0343 -18.9573 -2.5788 -9.9798 28.9115 -0.0100 -3.4991 -5.4437 -0.2179 -3.0050 8.2927 -0.3438 -0.7485 12.5974 2.6290 -0.8556 0.0485 3.1374 -0.3581 -6.9831 -1.2811 -2.2176 -16.9525 -2.0245 -2.2180 24.8837 -0.8279 -1.3872 10.8169 -0.0000 0.0000 0.0000 -83.5761 2.3548 23.6906 16.3297 -25.9657 -3.7892 -0.0000 0.0000 -7.7076 27.4526 24.0520 11.9551 -7.1250 0.0000 -0.0000 -2.0733 56.6680 -0.5932 -0.0000 0.0000 0.0000 89.0527 -2.9364 -17.4214 -9.2058 15.4878 -1.2545 0.0000 0.0000 15.6635 -16.5311 19.3453 -5.6153 7.1250 -0.0000 -0.0000 7.5983 -10.0056 6.2190
0.5082 17.9885 7.5956 -2.6239 1.6312 -3.5058 0.0000 0.0000 0.0000 -17.6858 -0.3795 2.1916 7.4599 15.7072 50.5929 0.1099 -15.0785 22.5167 0.0068 -0.5321 -1.4621 0.0000 0.0000 0.0000 26.2259 11.0739 -18.2187 -2.5354 -9.9020 28.6600 -0.0173 -3.3356 -5.5421 -0.1958 -2.8492 7.8592 0.1318 -0.6378 12.8475 2.8514 -0.6179 0.0377 3.0670 -0.2524 -7.1522 -1.2213 -2.2319 -17.3359 -2.2004 -2.1990 24.8504 -0.9040 -1.3953 10.8763 0.0000 0.0000 0.0000 -83.8651 2.3859 23.3346 15.8982 -25.3824 -3.6022 -0.0000 0.0000 -8.1117 27.5738 21.3923 10.7842 -7.1250 0.0000 -0.0000 -1.1962 53.8182 -0.2594 0.0000 0.0000 0.0000 88.8202 -2.7632 -16.6693 -9.2416 15.5447 -1.2641 0.0000 0.0000 15.4043 -16.4523 18.6412 -5.3923 7.1250 -0.0000 -0.0000 7.6207 -10.7343 6.1238
